<?xml version="1.0" encoding="UTF-8" standalone="no"?>
<svg
   xmlns:dc="http://purl.org/dc/elements/1.1/"
   xmlns:cc="http://creativecommons.org/ns#"
   xmlns:rdf="http://www.w3.org/1999/02/22-rdf-syntax-ns#"
   xmlns:svg="http://www.w3.org/2000/svg"
   xmlns="http://www.w3.org/2000/svg"
   xmlns:sodipodi="http://sodipodi.sourceforge.net/DTD/sodipodi-0.dtd"
   xmlns:inkscape="http://www.inkscape.org/namespaces/inkscape"
   viewBox="60.03 241.83 63.34 61.29"
   preserveAspectRatio="xMidYMid"
   width="100%"
   height="100%"
   id="svg2"
   version="1.1"
   inkscape:version="0.48.2 r9819"
   sodipodi:docname="L-isoleucine-skeletal.svg">
  <metadata
     id="metadata97">
    <rdf:RDF>
      <cc:Work
         rdf:about="">
        <dc:format>image/svg+xml</dc:format>
        <dc:type
           rdf:resource="http://purl.org/dc/dcmitype/StillImage" />
      </cc:Work>
    </rdf:RDF>
  </metadata>
  <defs
     id="defs95" />
  <sodipodi:namedview
     pagecolor="#ffffff"
     bordercolor="#666666"
     borderopacity="1"
     objecttolerance="10"
     gridtolerance="10"
     guidetolerance="10"
     inkscape:pageopacity="0"
     inkscape:pageshadow="2"
     inkscape:window-width="640"
     inkscape:window-height="480"
     id="namedview93"
     showgrid="false"
     inkscape:zoom="3.8505466"
     inkscape:cx="31.67"
     inkscape:cy="30.645"
     inkscape:window-x="0"
     inkscape:window-y="0"
     inkscape:window-maximized="0"
     inkscape:current-layer="svg2" />
  <clipPath
     id="25">
    <rect
       x="0.3"
       y="0.3"
       width="539.4"
       height="719.15"
       id="rect5" />
  </clipPath>
  <g
     id="drawing"
     transform="matrix(0.96610284,0,0,0.96610284,3.1083696,9.2361638)">
    <path
       style="fill:#ffffff;fill-opacity:0"
       d="m 60.029999,241.83 63.340001,0 0,61.29 -63.340001,0 z"
       id="rect8"
       inkscape:connector-curvature="0" />
    <g
       id="page"
       clip-path="url(#25)">
      <g
         id="g11">
        <g
           style="text-anchor:end"
           id="text13">
          <path
             d="m 60.762848,288.57001 0,-7.15821 0.947266,0 0,2.93946 3.720703,0 0,-2.93946 0.947265,0 0,7.15821 -0.947265,0 0,-3.37403 -3.720703,0 0,3.37403 z"
             style="font-size:10px;fill:#000000;font-family:Arial"
             id="path3076"
             inkscape:connector-curvature="0" />
          <path
             d="m 70.964264,290.19646 0,0.63355 -3.548584,0 c -0.0049,-0.15869 0.02075,-0.31128 0.0769,-0.45777 0.09033,-0.24169 0.234985,-0.47973 0.43396,-0.71411 0.198974,-0.23437 0.486449,-0.50537 0.862427,-0.81299 0.583494,-0.47851 0.977781,-0.85754 1.182861,-1.13708 0.205075,-0.27954 0.307614,-0.54382 0.307617,-0.79285 -3e-6,-0.26122 -0.09339,-0.48156 -0.280151,-0.66101 -0.18677,-0.17944 -0.4303,-0.26916 -0.730591,-0.26916 -0.317384,0 -0.57129,0.0952 -0.761718,0.28564 -0.190431,0.19044 -0.286867,0.45411 -0.289307,0.79102 l -0.67749,-0.0696 c 0.04639,-0.50537 0.220946,-0.8905 0.523681,-1.1554 0.302733,-0.26489 0.709227,-0.39733 1.219483,-0.39734 0.515134,10e-6 0.922848,0.14283 1.223144,0.42847 0.30029,0.28565 0.450436,0.63965 0.45044,1.06201 -4e-6,0.21485 -0.04395,0.42603 -0.131836,0.63355 -0.08789,0.20752 -0.233768,0.42602 -0.437622,0.65551 -0.203861,0.2295 -0.542606,0.54444 -1.016236,0.94483 -0.395509,0.33203 -0.649415,0.55725 -0.761718,0.67566 -0.112306,0.11841 -0.20508,0.23742 -0.278321,0.35705 z"
             style="font-size:7.5px;fill:#000000;font-family:Arial"
             id="path3078"
             inkscape:connector-curvature="0" />
          <path
             d="m 72.125153,288.57001 0,-7.15821 0.971679,0 3.759766,5.62012 0,-5.62012 0.908203,0 0,7.15821 -0.97168,0 -3.759765,-5.625 0,5.625 z"
             style="font-size:10px;fill:#000000;font-family:Arial"
             id="path3080"
             inkscape:connector-curvature="0" />
        </g>
      </g>
      <g
         id="Solid">
        <path
           d="m 79.34,282.84 0,0 -0.15,-0.26 -0.15,-0.26 8.13,-4.69 0.3,0.17 0,0.35 z"
           shape-rendering="geometricPrecision"
           id="path22"
           inkscape:connector-curvature="0"
           style="fill:#000000;fill-rule:evenodd;stroke:#000000;stroke-width:0;stroke-linejoin:miter" />
      </g>
      <g
         id="g24">
        <path
           d="m 87.47,278.15 0,0 0,-0.35 0.3,-0.17 12.13,6.99 0,0.35 0,0.35 z"
           shape-rendering="geometricPrecision"
           id="path26"
           inkscape:connector-curvature="0"
           style="fill:#000000;fill-rule:evenodd;stroke:#000000;stroke-width:0;stroke-linejoin:miter" />
      </g>
      <g
         id="g28">
        <g
           style="text-anchor:start"
           id="text30">
          <path
             d="m 108.9034,277.98367 c 0,-1.18814 0.31901,-2.11832 0.95703,-2.79052 0.63802,-0.6722 1.46158,-1.0083 2.4707,-1.00831 0.6608,10e-6 1.25651,0.15789 1.78711,0.47364 0.53059,0.31576 0.93505,0.75603 1.21338,1.3208 0.27831,0.56478 0.41747,1.20524 0.41748,1.92139 -1e-5,0.72591 -0.14649,1.37532 -0.43945,1.94824 -0.29298,0.57292 -0.70802,1.00667 -1.24512,1.30127 -0.53712,0.29459 -1.11654,0.44189 -1.73828,0.44189 -0.67383,0 -1.27605,-0.16276 -1.80664,-0.48828 -0.5306,-0.32552 -0.93262,-0.76986 -1.20606,-1.33301 -0.27344,-0.56315 -0.41015,-1.15885 -0.41015,-1.78711 z m 0.97656,0.0146 c 0,0.86263 0.23193,1.54216 0.6958,2.03858 0.46386,0.49642 1.04573,0.74463 1.74561,0.74462 0.71288,10e-6 1.29963,-0.25065 1.76025,-0.75195 0.46061,-0.5013 0.69091,-1.21256 0.69092,-2.13379 -1e-5,-0.58268 -0.0985,-1.0913 -0.29541,-1.52588 -0.19695,-0.43456 -0.48503,-0.77147 -0.86426,-1.01074 -0.37924,-0.23925 -0.80486,-0.35888 -1.27686,-0.35889 -0.67057,10e-6 -1.24756,0.23032 -1.73095,0.69092 -0.4834,0.46062 -0.7251,1.22966 -0.7251,2.30713 z"
             style="font-size:10px;fill:#000000;font-family:Arial"
             id="path3083"
             inkscape:connector-curvature="0" />
          <path
             d="m 116.99422,281.47 0,-7.1582 0.94726,0 0,2.93945 3.72071,0 0,-2.93945 0.94726,0 0,7.1582 -0.94726,0 0,-3.37402 -3.72071,0 0,3.37402 z"
             style="font-size:10px;fill:#000000;font-family:Arial"
             id="path3085"
             inkscape:connector-curvature="0" />
        </g>
      </g>
      <g
         id="g34">
        <path
           d="m 99.9,285.32 0,0 0,-0.35 0,-0.35 7.76,-4.47 0.15,0.25 0.15,0.26 z"
           shape-rendering="geometricPrecision"
           id="path36"
           inkscape:connector-curvature="0"
           style="fill:#000000;fill-rule:evenodd;stroke:#000000;stroke-width:0;stroke-linejoin:miter" />
      </g>
      <g
         id="g38">
        <g
           style="text-anchor:start"
           id="text40">
          <path
             d="m 96.473396,299.51367 c 0,-1.18814 0.31901,-2.11832 0.957032,-2.79053 0.638018,-0.67219 1.461585,-1.00829 2.470703,-1.0083 0.660799,1e-5 1.256509,0.15789 1.787109,0.47364 0.53059,0.31576 0.93505,0.75602 1.21338,1.3208 0.27831,0.56478 0.41747,1.20524 0.41748,1.92138 -1e-5,0.72592 -0.14649,1.37533 -0.43945,1.94825 -0.29298,0.57291 -0.70802,1.00667 -1.24512,1.30127 -0.53712,0.29459 -1.11654,0.44189 -1.738282,0.44189 -0.673831,0 -1.276044,-0.16276 -1.806641,-0.48828 -0.5306,-0.32552 -0.932618,-0.76986 -1.206054,-1.33301 -0.273439,-0.56315 -0.410157,-1.15885 -0.410157,-1.78711 z m 0.976563,0.0147 c -2e-6,0.86263 0.231932,1.54216 0.695801,2.03857 0.463864,0.49642 1.045732,0.74463 1.745605,0.74463 0.712885,0 1.299635,-0.25065 1.760255,-0.75195 0.4606,-0.5013 0.69091,-1.21256 0.69092,-2.13379 -1e-5,-0.58268 -0.0985,-1.0913 -0.29541,-1.52588 -0.19695,-0.43456 -0.48503,-0.77148 -0.86426,-1.01074 -0.37924,-0.23925 -0.80486,-0.35888 -1.276857,-0.35889 -0.670576,10e-6 -1.247561,0.23032 -1.730957,0.69092 -0.4834,0.46062 -0.725099,1.22966 -0.725097,2.30713 z"
             style="font-size:10px;fill:#000000;font-family:Arial"
             id="path3088"
             inkscape:connector-curvature="0" />
        </g>
      </g>
      <g
         id="g44">
        <path
           style="stroke:#000000;stroke-width:0.60000002"
           d="m 101.19,284.97 0,9.23001"
           id="line46"
           inkscape:connector-curvature="0" />
        <path
           d="m 98.91,284.74 0,0 -0.6,-0.34 0,9.8 0.6,0 z"
           shape-rendering="geometricPrecision"
           id="path48"
           inkscape:connector-curvature="0"
           style="fill:#000000;fill-rule:evenodd;stroke:#000000;stroke-width:0;stroke-linejoin:miter" />
        <path
           d="m 101.49,284.4 0,0 -0.6,0.34 0,9.46 0.6,0 z"
           shape-rendering="geometricPrecision"
           id="path50"
           inkscape:connector-curvature="0"
           style="fill:#000000;fill-rule:evenodd;stroke:#000000;stroke-width:0;stroke-linejoin:miter" />
      </g>
      <g
         id="g52">
        <path
           d="m 87.77,277.63 0,0 -0.3,0.17 -0.3,-0.17 0,-14.06 0.3,-0.17 0.3,-0.17 z"
           shape-rendering="geometricPrecision"
           id="path54"
           inkscape:connector-curvature="0"
           style="fill:#000000;fill-rule:evenodd;stroke:#000000;stroke-width:0;stroke-linejoin:miter" />
      </g>
      <g
         id="g56">
        <path
           d="m 87.77,263.23 0,0 -0.3,0.17 -0.3,0.17 -12.43,-7.17 0.3,-0.17 0.3,-0.17 z"
           shape-rendering="geometricPrecision"
           id="path58"
           inkscape:connector-curvature="0"
           style="fill:#000000;fill-rule:evenodd;stroke:#000000;stroke-width:0;stroke-linejoin:miter" />
      </g>
      <g
         id="g60">
        <path
           d="m 75.34,256.06 0,0 -0.3,0.17 -0.3,0.17 0,-14.57 0.3,0 0.3,0 z"
           shape-rendering="geometricPrecision"
           id="path62"
           inkscape:connector-curvature="0"
           style="fill:#000000;fill-rule:evenodd;stroke:#000000;stroke-width:0;stroke-linejoin:miter" />
      </g>
      <g
         id="Wedged Hash Begin Bond">
        <path
           d="m 87.62,263.66 0,0 -0.3,-0.52 0.49,-0.34 0.35,0.6 z"
           shape-rendering="geometricPrecision"
           id="path65"
           inkscape:connector-curvature="0"
           style="fill:#000000;fill-rule:evenodd;stroke:#000000;stroke-width:0;stroke-linejoin:miter" />
        <path
           d="m 90.12,262.49 0,0 -0.53,-0.92 0.49,-0.35 0.58,1.01 z"
           shape-rendering="geometricPrecision"
           id="path67"
           inkscape:connector-curvature="0"
           style="fill:#000000;fill-rule:evenodd;stroke:#000000;stroke-width:0;stroke-linejoin:miter" />
        <path
           d="m 92.61,261.31 0,0 -0.76,-1.32 0.5,-0.34 0.81,1.4 z"
           shape-rendering="geometricPrecision"
           id="path69"
           inkscape:connector-curvature="0"
           style="fill:#000000;fill-rule:evenodd;stroke:#000000;stroke-width:0;stroke-linejoin:miter" />
        <path
           d="m 95.11,260.14 0,0 -0.99,-1.72 0.5,-0.34 1.04,1.8 z"
           shape-rendering="geometricPrecision"
           id="path71"
           inkscape:connector-curvature="0"
           style="fill:#000000;fill-rule:evenodd;stroke:#000000;stroke-width:0;stroke-linejoin:miter" />
        <path
           d="m 97.61,258.96 0,0 -1.22,-2.11 0.49,-0.35 1.27,2.2 z"
           shape-rendering="geometricPrecision"
           id="path73"
           inkscape:connector-curvature="0"
           style="fill:#000000;fill-rule:evenodd;stroke:#000000;stroke-width:0;stroke-linejoin:miter" />
        <path
           d="m 100.1,257.79 0,0 -1.44,-2.52 0.49,-0.34 1.5,2.6 z"
           shape-rendering="geometricPrecision"
           id="path75"
           inkscape:connector-curvature="0"
           style="fill:#000000;fill-rule:evenodd;stroke:#000000;stroke-width:0;stroke-linejoin:miter" />
      </g>
      <g
         id="g77">
        <g
           style="text-anchor:start"
           id="text79">
          <path
             d="m 72.210785,274.17999 0,-7.1582 0.947266,0 0,2.93945 3.720703,0 0,-2.93945 0.947265,0 0,7.1582 -0.947265,0 0,-3.37402 -3.720703,0 0,3.37402 z"
             style="font-size:10px;fill:#000000;font-family:Arial"
             id="path3092"
             inkscape:connector-curvature="0" />
        </g>
      </g>
      <g
         id="g83">
        <path
           d="m 87.62,277.54 0,0 -0.3,0.52 -0.56,-0.23 0.38,-0.66 z"
           shape-rendering="geometricPrecision"
           id="path85"
           inkscape:connector-curvature="0"
           style="fill:#000000;fill-rule:evenodd;stroke:#000000;stroke-width:0;stroke-linejoin:miter" />
        <path
           d="m 85.25,275.74 0,0 -0.67,1.17 -0.56,-0.23 0.75,-1.31 z"
           shape-rendering="geometricPrecision"
           id="path87"
           inkscape:connector-curvature="0"
           style="fill:#000000;fill-rule:evenodd;stroke:#000000;stroke-width:0;stroke-linejoin:miter" />
        <path
           d="m 82.88,273.94 0,0 -1.04,1.82 -0.56,-0.24 1.12,-1.94 z"
           shape-rendering="geometricPrecision"
           id="path89"
           inkscape:connector-curvature="0"
           style="fill:#000000;fill-rule:evenodd;stroke:#000000;stroke-width:0;stroke-linejoin:miter" />
        <path
           d="m 80.52,272.14 0,0 -1.43,2.47 -0.55,-0.24 1.5,-2.59 z"
           shape-rendering="geometricPrecision"
           id="path91"
           inkscape:connector-curvature="0"
           style="fill:#000000;fill-rule:evenodd;stroke:#000000;stroke-width:0;stroke-linejoin:miter" />
      </g>
    </g>
  </g>
</svg>
